<svg width="128" height="41" viewBox="0 0 128 41" fill="none" xmlns="http://www.w3.org/2000/svg">
<path d="M13.8 15H10.38L4.66 6.34V15H1.24V0.96H4.66L10.38 9.66V0.96H13.8V15ZM25.0191 12.52H19.7791L18.9391 15H15.3591L20.4391 0.96H24.3991L29.4791 15H25.8591L25.0191 12.52ZM24.1391 9.88L22.3991 4.74L20.6791 9.88H24.1391ZM44.2052 0.96L39.2252 15H34.9452L29.9652 0.96H33.6052L37.0852 11.56L40.5852 0.96H44.2052ZM49.0545 0.96V15H45.6345V0.96H49.0545ZM60.853 5.4C60.5996 4.93333 60.233 4.58 59.753 4.34C59.2863 4.08667 58.733 3.96 58.093 3.96C56.9863 3.96 56.0996 4.32667 55.433 5.06C54.7663 5.78 54.433 6.74667 54.433 7.96C54.433 9.25333 54.7796 10.2667 55.473 11C56.1796 11.72 57.1463 12.08 58.373 12.08C59.213 12.08 59.9196 11.8667 60.493 11.44C61.0796 11.0133 61.5063 10.4 61.773 9.6H57.433V7.08H64.873V10.26C64.6196 11.1133 64.1863 11.9067 63.573 12.64C62.973 13.3733 62.2063 13.9667 61.273 14.42C60.3396 14.8733 59.2863 15.1 58.113 15.1C56.7263 15.1 55.4863 14.8 54.393 14.2C53.313 13.5867 52.4663 12.74 51.853 11.66C51.253 10.58 50.953 9.34667 50.953 7.96C50.953 6.57333 51.253 5.34 51.853 4.26C52.4663 3.16667 53.313 2.32 54.393 1.72C55.473 1.10667 56.7063 0.799999 58.093 0.799999C59.773 0.799999 61.1863 1.20667 62.333 2.02C63.493 2.83333 64.2596 3.96 64.633 5.4H60.853ZM75.5073 12.52H70.2673L69.4273 15H65.8473L70.9273 0.96H74.8873L79.9673 15H76.3473L75.5073 12.52ZM74.6273 9.88L72.8873 4.74L71.1673 9.88H74.6273ZM91.6134 0.96V3.7H87.8934V15H84.4734V3.7H80.7534V0.96H91.6134ZM96.7498 0.96V15H93.3298V0.96H96.7498ZM111.788 15H108.368L102.648 6.34V15H99.2283V0.96H102.648L108.368 9.66V0.96H111.788V15ZM123.587 5.4C123.334 4.93333 122.967 4.58 122.487 4.34C122.021 4.08667 121.467 3.96 120.827 3.96C119.721 3.96 118.834 4.32667 118.167 5.06C117.501 5.78 117.167 6.74667 117.167 7.96C117.167 9.25333 117.514 10.2667 118.207 11C118.914 11.72 119.881 12.08 121.107 12.08C121.947 12.08 122.654 11.8667 123.227 11.44C123.814 11.0133 124.241 10.4 124.507 9.6H120.167V7.08H127.607V10.26C127.354 11.1133 126.921 11.9067 126.307 12.64C125.707 13.3733 124.941 13.9667 124.007 14.42C123.074 14.8733 122.021 15.1 120.847 15.1C119.461 15.1 118.221 14.8 117.127 14.2C116.047 13.5867 115.201 12.74 114.587 11.66C113.987 10.58 113.687 9.34667 113.687 7.96C113.687 6.57333 113.987 5.34 114.587 4.26C115.201 3.16667 116.047 2.32 117.127 1.72C118.207 1.10667 119.441 0.799999 120.827 0.799999C122.507 0.799999 123.921 1.20667 125.067 2.02C126.227 2.83333 126.994 3.96 127.367 5.4H123.587ZM11.34 25.96V28.7H7.62V40H4.2V28.7H0.48V25.96H11.34ZM19.6964 40.14C18.3764 40.14 17.1631 39.8333 16.0564 39.22C14.9631 38.6067 14.0897 37.7533 13.4364 36.66C12.7964 35.5533 12.4764 34.3133 12.4764 32.94C12.4764 31.5667 12.7964 30.3333 13.4364 29.24C14.0897 28.1467 14.9631 27.2933 16.0564 26.68C17.1631 26.0667 18.3764 25.76 19.6964 25.76C21.0164 25.76 22.2231 26.0667 23.3164 26.68C24.4231 27.2933 25.2897 28.1467 25.9164 29.24C26.5564 30.3333 26.8764 31.5667 26.8764 32.94C26.8764 34.3133 26.5564 35.5533 25.9164 36.66C25.2764 37.7533 24.4097 38.6067 23.3164 39.22C22.2231 39.8333 21.0164 40.14 19.6964 40.14ZM19.6964 37.02C20.8164 37.02 21.7097 36.6467 22.3764 35.9C23.0564 35.1533 23.3964 34.1667 23.3964 32.94C23.3964 31.7 23.0564 30.7133 22.3764 29.98C21.7097 29.2333 20.8164 28.86 19.6964 28.86C18.5631 28.86 17.6564 29.2267 16.9764 29.96C16.3097 30.6933 15.9764 31.6867 15.9764 32.94C15.9764 34.18 16.3097 35.1733 16.9764 35.92C17.6564 36.6533 18.5631 37.02 19.6964 37.02ZM44.6791 25.96V40H41.2591V31.58L38.1191 40H35.3591L32.1991 31.56V40H28.7791V25.96H32.8191L36.7591 35.68L40.6591 25.96H44.6791ZM53.7784 40.14C52.4584 40.14 51.2451 39.8333 50.1384 39.22C49.0451 38.6067 48.1718 37.7533 47.5184 36.66C46.8784 35.5533 46.5584 34.3133 46.5584 32.94C46.5584 31.5667 46.8784 30.3333 47.5184 29.24C48.1718 28.1467 49.0451 27.2933 50.1384 26.68C51.2451 26.0667 52.4584 25.76 53.7784 25.76C55.0984 25.76 56.3051 26.0667 57.3984 26.68C58.5051 27.2933 59.3718 28.1467 59.9984 29.24C60.6384 30.3333 60.9584 31.5667 60.9584 32.94C60.9584 34.3133 60.6384 35.5533 59.9984 36.66C59.3584 37.7533 58.4918 38.6067 57.3984 39.22C56.3051 39.8333 55.0984 40.14 53.7784 40.14ZM53.7784 37.02C54.8984 37.02 55.7918 36.6467 56.4584 35.9C57.1384 35.1533 57.4784 34.1667 57.4784 32.94C57.4784 31.7 57.1384 30.7133 56.4584 29.98C55.7918 29.2333 54.8984 28.86 53.7784 28.86C52.6451 28.86 51.7384 29.2267 51.0584 29.96C50.3918 30.6933 50.0584 31.6867 50.0584 32.94C50.0584 34.18 50.3918 35.1733 51.0584 35.92C51.7384 36.6533 52.6451 37.02 53.7784 37.02ZM70.0211 40L67.1011 34.7H66.2811V40H62.8611V25.96H68.6011C69.7078 25.96 70.6478 26.1533 71.4211 26.54C72.2078 26.9267 72.7944 27.46 73.1811 28.14C73.5678 28.8067 73.7611 29.5533 73.7611 30.38C73.7611 31.3133 73.4944 32.1467 72.9611 32.88C72.4411 33.6133 71.6678 34.1333 70.6411 34.44L73.8811 40H70.0211ZM66.2811 32.28H68.4011C69.0278 32.28 69.4944 32.1267 69.8011 31.82C70.1211 31.5133 70.2811 31.08 70.2811 30.52C70.2811 29.9867 70.1211 29.5667 69.8011 29.26C69.4944 28.9533 69.0278 28.8 68.4011 28.8H66.2811V32.28ZM83.068 40L80.148 34.7H79.328V40H75.908V25.96H81.648C82.7546 25.96 83.6946 26.1533 84.468 26.54C85.2546 26.9267 85.8413 27.46 86.228 28.14C86.6146 28.8067 86.808 29.5533 86.808 30.38C86.808 31.3133 86.5413 32.1467 86.008 32.88C85.488 33.6133 84.7146 34.1333 83.688 34.44L86.928 40H83.068ZM79.328 32.28H81.448C82.0746 32.28 82.5413 32.1267 82.848 31.82C83.168 31.5133 83.328 31.08 83.328 30.52C83.328 29.9867 83.168 29.5667 82.848 29.26C82.5413 28.9533 82.0746 28.8 81.448 28.8H79.328V32.28ZM95.5948 40.14C94.2748 40.14 93.0615 39.8333 91.9548 39.22C90.8615 38.6067 89.9882 37.7533 89.3348 36.66C88.6948 35.5533 88.3748 34.3133 88.3748 32.94C88.3748 31.5667 88.6948 30.3333 89.3348 29.24C89.9882 28.1467 90.8615 27.2933 91.9548 26.68C93.0615 26.0667 94.2748 25.76 95.5948 25.76C96.9148 25.76 98.1215 26.0667 99.2148 26.68C100.322 27.2933 101.188 28.1467 101.815 29.24C102.455 30.3333 102.775 31.5667 102.775 32.94C102.775 34.3133 102.455 35.5533 101.815 36.66C101.175 37.7533 100.308 38.6067 99.2148 39.22C98.1215 39.8333 96.9148 40.14 95.5948 40.14ZM95.5948 37.02C96.7148 37.02 97.6082 36.6467 98.2748 35.9C98.9548 35.1533 99.2948 34.1667 99.2948 32.94C99.2948 31.7 98.9548 30.7133 98.2748 29.98C97.6082 29.2333 96.7148 28.86 95.5948 28.86C94.4615 28.86 93.5548 29.2267 92.8748 29.96C92.2082 30.6933 91.8748 31.6867 91.8748 32.94C91.8748 34.18 92.2082 35.1733 92.8748 35.92C93.5548 36.6533 94.4615 37.02 95.5948 37.02ZM123.997 25.96L120.338 40H116.198L113.958 30.76L111.638 40H107.498L103.938 25.96H107.598L109.618 36.18L112.118 25.96H115.878L118.278 36.18L120.318 25.96H123.997Z" fill="url(#paint0_linear_183_63)"/>
<defs>
<linearGradient id="paint0_linear_183_63" x1="0" y1="20" x2="129" y2="20" gradientUnits="userSpaceOnUse">
<stop offset="0.000999756" stop-color="#75AFF6"/>
<stop offset="0.161" stop-color="#4E8DDA"/>
<stop offset="0.301" stop-color="#327EC9"/>
<stop offset="0.461" stop-color="#6161D0"/>
<stop offset="0.641" stop-color="#9346D3"/>
<stop offset="0.811" stop-color="#974EC3"/>
<stop offset="1" stop-color="#FE7BBF"/>
</linearGradient>
</defs>
</svg>
